<svg width="30" height="30" viewBox="0 0 30 30" fill="none" xmlns="http://www.w3.org/2000/svg">
<circle cx="15" cy="15" r="15" fill="white" fill-opacity="0.2"/>
<path d="M12.074 18.928V14.248C12.266 14.28 12.442 14.312 12.602 14.344C12.762 14.36 12.914 14.368 13.058 14.368C13.49 14.368 13.898 14.312 14.282 14.2C14.666 14.072 14.994 13.904 15.266 13.696C15.554 13.488 15.778 13.24 15.938 12.952C16.098 12.648 16.178 12.32 16.178 11.968C16.178 11.488 16.018 11.072 15.698 10.72C15.378 10.368 14.946 10.192 14.402 10.192C13.906 10.192 13.506 10.36 13.202 10.696C12.914 11.032 12.77 11.472 12.77 12.016H7.99403C7.99403 11.2 8.15403 10.456 8.47403 9.784C8.81003 9.096 9.26603 8.504 9.84203 8.008C10.434 7.496 11.122 7.104 11.906 6.832C12.706 6.544 13.57 6.4 14.498 6.4C15.442 6.4 16.298 6.56 17.066 6.88C17.85 7.184 18.522 7.6 19.082 8.128C19.642 8.656 20.074 9.264 20.378 9.952C20.682 10.64 20.834 11.352 20.834 12.088C20.834 14.488 19.386 16.192 16.49 17.2V18.928H12.074ZM11.594 22.696C11.594 22.312 11.666 21.952 11.81 21.616C11.954 21.264 12.154 20.96 12.41 20.704C12.666 20.448 12.962 20.248 13.298 20.104C13.65 19.96 14.018 19.888 14.402 19.888C14.786 19.888 15.146 19.96 15.482 20.104C15.834 20.248 16.138 20.448 16.394 20.704C16.65 20.96 16.85 21.264 16.994 21.616C17.138 21.952 17.21 22.312 17.21 22.696C17.21 23.08 17.138 23.448 16.994 23.8C16.85 24.136 16.65 24.432 16.394 24.688C16.138 24.944 15.834 25.144 15.482 25.288C15.146 25.432 14.786 25.504 14.402 25.504C14.018 25.504 13.65 25.432 13.298 25.288C12.962 25.144 12.666 24.944 12.41 24.688C12.154 24.432 11.954 24.136 11.81 23.8C11.666 23.448 11.594 23.08 11.594 22.696Z" fill="white"/>
</svg>
