<svg width="1408" height="274" viewBox="0 0 1408 274" fill="none" xmlns="http://www.w3.org/2000/svg">
<rect width="352" height="274" fill="#136DB9"/>
<path d="M176 109.543C176 157.892 176 171.088 176 197.087C224.349 197.087 263.543 157.892 263.543 109.543C263.543 61.1945 224.349 22 176 22C176 35.8119 176 61.1945 176 109.543Z" fill="url(#paint0_linear_553_34)"/>
<path d="M88.0001 109.543C88.0001 157.892 88.0001 171.088 88.0001 197.087C136.349 197.087 175.543 157.892 175.543 109.543C175.543 61.1945 136.349 22 88.0001 22C88.0001 35.8119 88.0001 61.1945 88.0001 109.543Z" fill="url(#paint1_linear_553_34)"/>
<path d="M6.86646e-05 109.543C6.86646e-05 157.892 6.86646e-05 171.088 6.86646e-05 197.087C48.3489 197.087 87.5435 157.892 87.5435 109.543C87.5435 61.1945 48.3489 22 6.86646e-05 22C6.86646e-05 35.8119 6.86646e-05 61.1945 6.86646e-05 109.543Z" fill="url(#paint2_linear_553_34)"/>
<path d="M264 109.543C264 157.892 264 171.088 264 197.087C312.349 197.087 351.543 157.892 351.543 109.543C351.543 61.1945 312.349 22 264 22C264 35.8119 264 61.1945 264 109.543Z" fill="url(#paint3_linear_553_34)"/>
<rect x="352" width="352" height="274" fill="#136DB9"/>
<path d="M616 109.543C616 157.892 616 171.088 616 197.087C664.349 197.087 703.543 157.892 703.543 109.543C703.543 61.1945 664.349 22 616 22C616 35.8119 616 61.1945 616 109.543Z" fill="url(#paint4_linear_553_34)"/>
<path d="M440 109.543C440 157.892 440 171.088 440 197.087C488.349 197.087 527.543 157.892 527.543 109.543C527.543 61.1945 488.349 22 440 22C440 35.8119 440 61.1945 440 109.543Z" fill="url(#paint5_linear_553_34)"/>
<path d="M352 109.543C352 157.892 352 171.088 352 197.087C400.349 197.087 439.543 157.892 439.543 109.543C439.543 61.1945 400.349 22 352 22C352 35.8119 352 61.1945 352 109.543Z" fill="url(#paint6_linear_553_34)"/>
<path d="M528 109.543C528 157.892 528 171.088 528 197.087C576.349 197.087 615.543 157.892 615.543 109.543C615.543 61.1945 576.349 22 528 22C528 35.8119 528 61.1945 528 109.543Z" fill="url(#paint7_linear_553_34)"/>
<rect x="704" width="352" height="274" fill="#136DB9"/>
<rect x="704" width="352" height="274" fill="#136DB9"/>
<path d="M968 109.543C968 157.892 968 171.088 968 197.087C1016.35 197.087 1055.54 157.892 1055.54 109.543C1055.54 61.1945 1016.35 22 968 22C968 35.8119 968 61.1945 968 109.543Z" fill="url(#paint8_linear_553_34)"/>
<path d="M880 109.543C880 157.892 880 171.088 880 197.087C928.349 197.087 967.543 157.892 967.543 109.543C967.543 61.1945 928.349 22 880 22C880 35.8119 880 61.1945 880 109.543Z" fill="url(#paint9_linear_553_34)"/>
<path d="M704 109.543C704 157.892 704 171.088 704 197.087C752.349 197.087 791.543 157.892 791.543 109.543C791.543 61.1945 752.349 22 704 22C704 35.8119 704 61.1945 704 109.543Z" fill="url(#paint10_linear_553_34)"/>
<path d="M792 109.543C792 157.892 792 171.088 792 197.087C840.349 197.087 879.543 157.892 879.543 109.543C879.543 61.1945 840.349 22 792 22C792 35.8119 792 61.1945 792 109.543Z" fill="url(#paint11_linear_553_34)"/>
<rect x="1056" width="352" height="274" fill="#136DB9"/>
<rect x="1056" width="352" height="274" fill="#136DB9"/>
<path d="M1320 109.543C1320 157.892 1320 171.088 1320 197.087C1368.35 197.087 1407.54 157.892 1407.54 109.543C1407.54 61.1945 1368.35 22 1320 22C1320 35.8119 1320 61.1945 1320 109.543Z" fill="url(#paint12_linear_553_34)"/>
<path d="M1232 109.543C1232 157.892 1232 171.088 1232 197.087C1280.35 197.087 1319.54 157.892 1319.54 109.543C1319.54 61.1945 1280.35 22 1232 22C1232 35.8119 1232 61.1945 1232 109.543Z" fill="url(#paint13_linear_553_34)"/>
<path d="M1144 114.543C1144 162.892 1144 176.088 1144 202.087C1192.35 202.087 1231.54 162.892 1231.54 114.543C1231.54 66.1945 1192.35 27 1144 27C1144 40.8119 1144 66.1945 1144 114.543Z" fill="url(#paint14_linear_553_34)"/>
<path d="M1056 114.543C1056 162.892 1056 176.088 1056 202.087C1104.35 202.087 1143.54 162.892 1143.54 114.543C1143.54 66.1945 1104.35 27 1056 27C1056 40.8119 1056 66.1945 1056 114.543Z" fill="url(#paint15_linear_553_34)"/>
<defs>
<linearGradient id="paint0_linear_553_34" x1="176" y1="109.543" x2="263.543" y2="109.543" gradientUnits="userSpaceOnUse">
<stop stop-color="#136DB9"/>
<stop offset="1" stop-color="#DAA0D4"/>
</linearGradient>
<linearGradient id="paint1_linear_553_34" x1="88.0001" y1="109.543" x2="175.543" y2="109.543" gradientUnits="userSpaceOnUse">
<stop stop-color="#136DB9"/>
<stop offset="1" stop-color="#DAA0D4"/>
</linearGradient>
<linearGradient id="paint2_linear_553_34" x1="6.86646e-05" y1="109.543" x2="87.5435" y2="109.543" gradientUnits="userSpaceOnUse">
<stop stop-color="#136DB9"/>
<stop offset="1" stop-color="#DAA0D4"/>
</linearGradient>
<linearGradient id="paint3_linear_553_34" x1="264" y1="109.543" x2="351.543" y2="109.543" gradientUnits="userSpaceOnUse">
<stop stop-color="#136DB9"/>
<stop offset="1" stop-color="white"/>
</linearGradient>
<linearGradient id="paint4_linear_553_34" x1="616" y1="109.543" x2="703.543" y2="109.543" gradientUnits="userSpaceOnUse">
<stop stop-color="#136DB9"/>
<stop offset="1" stop-color="#DAA0D4"/>
</linearGradient>
<linearGradient id="paint5_linear_553_34" x1="440" y1="109.543" x2="527.543" y2="109.543" gradientUnits="userSpaceOnUse">
<stop stop-color="#136DB9"/>
<stop offset="1" stop-color="#DAA0D4"/>
</linearGradient>
<linearGradient id="paint6_linear_553_34" x1="352" y1="109.543" x2="439.543" y2="109.543" gradientUnits="userSpaceOnUse">
<stop stop-color="#136DB9"/>
<stop offset="1" stop-color="#DAA0D4"/>
</linearGradient>
<linearGradient id="paint7_linear_553_34" x1="528" y1="109.543" x2="615.543" y2="109.543" gradientUnits="userSpaceOnUse">
<stop stop-color="#136DB9"/>
<stop offset="1" stop-color="white"/>
</linearGradient>
<linearGradient id="paint8_linear_553_34" x1="968" y1="109.543" x2="1055.54" y2="109.543" gradientUnits="userSpaceOnUse">
<stop stop-color="#136DB9"/>
<stop offset="1" stop-color="#DAA0D4"/>
</linearGradient>
<linearGradient id="paint9_linear_553_34" x1="880" y1="109.543" x2="967.543" y2="109.543" gradientUnits="userSpaceOnUse">
<stop stop-color="#136DB9"/>
<stop offset="1" stop-color="#DAA0D4"/>
</linearGradient>
<linearGradient id="paint10_linear_553_34" x1="704" y1="109.543" x2="791.543" y2="109.543" gradientUnits="userSpaceOnUse">
<stop stop-color="#136DB9"/>
<stop offset="1" stop-color="#DAA0D4"/>
</linearGradient>
<linearGradient id="paint11_linear_553_34" x1="792" y1="109.543" x2="879.543" y2="109.543" gradientUnits="userSpaceOnUse">
<stop stop-color="#136DB9"/>
<stop offset="1" stop-color="white"/>
</linearGradient>
<linearGradient id="paint12_linear_553_34" x1="1320" y1="109.543" x2="1407.54" y2="109.543" gradientUnits="userSpaceOnUse">
<stop stop-color="#136DB9"/>
<stop offset="1" stop-color="#DAA0D4"/>
</linearGradient>
<linearGradient id="paint13_linear_553_34" x1="1232" y1="109.543" x2="1319.54" y2="109.543" gradientUnits="userSpaceOnUse">
<stop stop-color="#136DB9"/>
<stop offset="1" stop-color="#DAA0D4"/>
</linearGradient>
<linearGradient id="paint14_linear_553_34" x1="1144" y1="114.543" x2="1231.54" y2="114.543" gradientUnits="userSpaceOnUse">
<stop stop-color="#136DB9"/>
<stop offset="1" stop-color="#DAA0D4"/>
</linearGradient>
<linearGradient id="paint15_linear_553_34" x1="1056" y1="114.543" x2="1143.54" y2="114.543" gradientUnits="userSpaceOnUse">
<stop stop-color="#136DB9"/>
<stop offset="1" stop-color="white"/>
</linearGradient>
</defs>
</svg>
