<svg width="1408" height="275" viewBox="0 0 1408 275" fill="none" xmlns="http://www.w3.org/2000/svg">
<rect width="352" height="274" fill="#136DB9"/>
<path d="M176 186.543C176 234.892 176 248.088 176 274.087C224.349 274.087 263.543 234.892 263.543 186.543C263.543 138.195 224.349 99 176 99C176 112.812 176 138.195 176 186.543Z" fill="url(#paint0_linear_553_35)"/>
<path d="M88.0001 186.543C88.0001 234.892 88.0001 248.088 88.0001 274.087C136.349 274.087 175.543 234.892 175.543 186.543C175.543 138.195 136.349 99 88.0001 99C88.0001 112.812 88.0001 138.195 88.0001 186.543Z" fill="url(#paint1_linear_553_35)"/>
<path d="M6.93947e-05 186.543C6.93947e-05 234.892 6.93947e-05 248.088 6.93947e-05 274.087C48.3489 274.087 87.5435 234.892 87.5435 186.543C87.5435 138.195 48.3489 99 6.93947e-05 99C6.93947e-05 112.812 6.93947e-05 138.195 6.93947e-05 186.543Z" fill="url(#paint2_linear_553_35)"/>
<path d="M264 186.543C264 234.892 264 248.088 264 274.087C312.349 274.087 351.543 234.892 351.543 186.543C351.543 138.195 312.349 99 264 99C264 112.812 264 138.195 264 186.543Z" fill="url(#paint3_linear_553_35)"/>
<rect x="352" width="352" height="274" fill="#136DB9"/>
<path d="M616 186.543C616 234.892 616 248.088 616 274.087C664.349 274.087 703.543 234.892 703.543 186.543C703.543 138.195 664.349 99 616 99C616 112.812 616 138.195 616 186.543Z" fill="url(#paint4_linear_553_35)"/>
<path d="M440 186.543C440 234.892 440 248.088 440 274.087C488.349 274.087 527.543 234.892 527.543 186.543C527.543 138.195 488.349 99 440 99C440 112.812 440 138.195 440 186.543Z" fill="url(#paint5_linear_553_35)"/>
<path d="M352 186.543C352 234.892 352 248.088 352 274.087C400.349 274.087 439.543 234.892 439.543 186.543C439.543 138.195 400.349 99 352 99C352 112.812 352 138.195 352 186.543Z" fill="url(#paint6_linear_553_35)"/>
<path d="M528 186.543C528 234.892 528 248.088 528 274.087C576.349 274.087 615.543 234.892 615.543 186.543C615.543 138.195 576.349 99 528 99C528 112.812 528 138.195 528 186.543Z" fill="url(#paint7_linear_553_35)"/>
<rect x="704" width="352" height="274" fill="#136DB9"/>
<rect x="704" width="352" height="274" fill="#136DB9"/>
<path d="M968 186.543C968 234.892 968 248.088 968 274.087C1016.35 274.087 1055.54 234.892 1055.54 186.543C1055.54 138.195 1016.35 99 968 99C968 112.812 968 138.195 968 186.543Z" fill="url(#paint8_linear_553_35)"/>
<path d="M880 186.543C880 234.892 880 248.088 880 274.087C928.349 274.087 967.543 234.892 967.543 186.543C967.543 138.195 928.349 99 880 99C880 112.812 880 138.195 880 186.543Z" fill="url(#paint9_linear_553_35)"/>
<path d="M704 186.543C704 234.892 704 248.088 704 274.087C752.349 274.087 791.543 234.892 791.543 186.543C791.543 138.195 752.349 99 704 99C704 112.812 704 138.195 704 186.543Z" fill="url(#paint10_linear_553_35)"/>
<path d="M792 186.543C792 234.892 792 248.088 792 274.087C840.349 274.087 879.543 234.892 879.543 186.543C879.543 138.195 840.349 99 792 99C792 112.812 792 138.195 792 186.543Z" fill="url(#paint11_linear_553_35)"/>
<rect x="1056" width="352" height="274" fill="#136DB9"/>
<rect x="1056" width="352" height="274" fill="#136DB9"/>
<path d="M1320 186.543C1320 234.892 1320 248.088 1320 274.087C1368.35 274.087 1407.54 234.892 1407.54 186.543C1407.54 138.195 1368.35 99 1320 99C1320 112.812 1320 138.195 1320 186.543Z" fill="url(#paint12_linear_553_35)"/>
<path d="M1232 186.543C1232 234.892 1232 248.088 1232 274.087C1280.35 274.087 1319.54 234.892 1319.54 186.543C1319.54 138.195 1280.35 99 1232 99C1232 112.812 1232 138.195 1232 186.543Z" fill="url(#paint13_linear_553_35)"/>
<path d="M1144 186.543C1144 234.892 1144 248.088 1144 274.087C1192.35 274.087 1231.54 234.892 1231.54 186.543C1231.54 138.195 1192.35 99 1144 99C1144 112.812 1144 138.195 1144 186.543Z" fill="url(#paint14_linear_553_35)"/>
<path d="M1056 186.543C1056 234.892 1056 248.088 1056 274.087C1104.35 274.087 1143.54 234.892 1143.54 186.543C1143.54 138.195 1104.35 99 1056 99C1056 112.812 1056 138.195 1056 186.543Z" fill="url(#paint15_linear_553_35)"/>
<defs>
<linearGradient id="paint0_linear_553_35" x1="176" y1="186.543" x2="263.543" y2="186.543" gradientUnits="userSpaceOnUse">
<stop stop-color="#136DB9"/>
<stop offset="1" stop-color="#DAA0D4"/>
</linearGradient>
<linearGradient id="paint1_linear_553_35" x1="88.0001" y1="186.543" x2="175.543" y2="186.543" gradientUnits="userSpaceOnUse">
<stop stop-color="#136DB9"/>
<stop offset="1" stop-color="#DAA0D4"/>
</linearGradient>
<linearGradient id="paint2_linear_553_35" x1="6.86646e-05" y1="186.543" x2="87.5435" y2="186.543" gradientUnits="userSpaceOnUse">
<stop stop-color="#136DB9"/>
<stop offset="1" stop-color="#DAA0D4"/>
</linearGradient>
<linearGradient id="paint3_linear_553_35" x1="264" y1="186.543" x2="351.543" y2="186.543" gradientUnits="userSpaceOnUse">
<stop stop-color="#136DB9"/>
<stop offset="1" stop-color="white"/>
</linearGradient>
<linearGradient id="paint4_linear_553_35" x1="616" y1="186.543" x2="703.543" y2="186.543" gradientUnits="userSpaceOnUse">
<stop stop-color="#136DB9"/>
<stop offset="1" stop-color="#DAA0D4"/>
</linearGradient>
<linearGradient id="paint5_linear_553_35" x1="440" y1="186.543" x2="527.543" y2="186.543" gradientUnits="userSpaceOnUse">
<stop stop-color="#136DB9"/>
<stop offset="1" stop-color="#DAA0D4"/>
</linearGradient>
<linearGradient id="paint6_linear_553_35" x1="352" y1="186.543" x2="439.543" y2="186.543" gradientUnits="userSpaceOnUse">
<stop stop-color="#136DB9"/>
<stop offset="1" stop-color="#DAA0D4"/>
</linearGradient>
<linearGradient id="paint7_linear_553_35" x1="528" y1="186.543" x2="615.543" y2="186.543" gradientUnits="userSpaceOnUse">
<stop stop-color="#136DB9"/>
<stop offset="1" stop-color="white"/>
</linearGradient>
<linearGradient id="paint8_linear_553_35" x1="968" y1="186.543" x2="1055.54" y2="186.543" gradientUnits="userSpaceOnUse">
<stop stop-color="#136DB9"/>
<stop offset="1" stop-color="#DAA0D4"/>
</linearGradient>
<linearGradient id="paint9_linear_553_35" x1="880" y1="186.543" x2="967.543" y2="186.543" gradientUnits="userSpaceOnUse">
<stop stop-color="#136DB9"/>
<stop offset="1" stop-color="#DAA0D4"/>
</linearGradient>
<linearGradient id="paint10_linear_553_35" x1="704" y1="186.543" x2="791.543" y2="186.543" gradientUnits="userSpaceOnUse">
<stop stop-color="#136DB9"/>
<stop offset="1" stop-color="#DAA0D4"/>
</linearGradient>
<linearGradient id="paint11_linear_553_35" x1="792" y1="186.543" x2="879.543" y2="186.543" gradientUnits="userSpaceOnUse">
<stop stop-color="#136DB9"/>
<stop offset="1" stop-color="white"/>
</linearGradient>
<linearGradient id="paint12_linear_553_35" x1="1320" y1="186.543" x2="1407.54" y2="186.543" gradientUnits="userSpaceOnUse">
<stop stop-color="#136DB9"/>
<stop offset="1" stop-color="#DAA0D4"/>
</linearGradient>
<linearGradient id="paint13_linear_553_35" x1="1232" y1="186.543" x2="1319.54" y2="186.543" gradientUnits="userSpaceOnUse">
<stop stop-color="#136DB9"/>
<stop offset="1" stop-color="#DAA0D4"/>
</linearGradient>
<linearGradient id="paint14_linear_553_35" x1="1144" y1="186.543" x2="1231.54" y2="186.543" gradientUnits="userSpaceOnUse">
<stop stop-color="#136DB9"/>
<stop offset="1" stop-color="#DAA0D4"/>
</linearGradient>
<linearGradient id="paint15_linear_553_35" x1="1056" y1="186.543" x2="1143.54" y2="186.543" gradientUnits="userSpaceOnUse">
<stop stop-color="#136DB9"/>
<stop offset="1" stop-color="white"/>
</linearGradient>
</defs>
</svg>
