<svg width="279" height="279" viewBox="0 0 279 279" fill="none" xmlns="http://www.w3.org/2000/svg">
<path d="M69.75 209.735C31.2281 209.735 20.7146 209.735 0 209.735C0 247.989 31.2281 279 69.75 279C108.272 279 139.5 247.989 139.5 209.735C128.495 209.735 108.272 209.735 69.75 209.735Z" fill="url(#paint0_linear_279_69)"/>
<path d="M69.75 140.471C31.2281 140.471 20.7146 140.471 0 140.471C0 178.725 31.2281 209.735 69.75 209.735C108.272 209.735 139.5 178.725 139.5 140.471C128.495 140.471 108.272 140.471 69.75 140.471Z" fill="url(#paint1_linear_279_69)"/>
<path d="M208.604 69.911C170.083 69.911 159.569 69.911 138.854 69.911C138.854 31.6573 170.083 0.646484 208.604 0.646484C247.126 0.646484 278.354 31.6573 278.354 69.911C267.35 69.911 247.126 69.911 208.604 69.911Z" fill="url(#paint2_linear_279_69)"/>
<path d="M209.25 139.177C170.728 139.177 160.215 139.177 139.5 139.177C139.5 100.923 170.728 69.9121 209.25 69.9121C247.772 69.9121 279 100.923 279 139.177C267.995 139.177 247.772 139.177 209.25 139.177Z" fill="url(#paint3_linear_279_69)"/>
<path d="M69.7497 69.9118C69.7497 108.523 69.7497 119.061 69.7497 139.824C31.5845 139.824 0.645508 108.523 0.645508 69.9118C0.645508 31.3006 31.5845 0 69.7497 0C69.7497 11.0302 69.7497 31.3006 69.7497 69.9118Z" fill="url(#paint4_linear_279_69)"/>
<path d="M138.854 69.9118C138.854 108.523 138.854 119.061 138.854 139.824C100.689 139.824 69.75 108.523 69.75 69.9118C69.75 31.3006 100.689 0 138.854 0C138.854 11.0302 138.854 31.3006 138.854 69.9118Z" fill="url(#paint5_linear_279_69)"/>
<path d="M140.146 209.089C140.146 247.7 140.146 258.238 140.146 279C178.311 279 209.25 247.7 209.25 209.089C209.25 170.477 178.311 139.177 140.146 139.177C140.146 150.207 140.146 170.477 140.146 209.089Z" fill="url(#paint6_linear_279_69)"/>
<path d="M209.896 209.089C209.896 247.7 209.896 258.238 209.896 279C248.061 279 279 247.7 279 209.089C279 170.477 248.061 139.177 209.896 139.177C209.896 150.207 209.896 170.477 209.896 209.089Z" fill="url(#paint7_linear_279_69)"/>
<defs>
<linearGradient id="paint0_linear_279_69" x1="0" y1="244.368" x2="139.5" y2="244.368" gradientUnits="userSpaceOnUse">
<stop stop-color="#93C2EA"/>
<stop offset="1" stop-color="#136DB9"/>
</linearGradient>
<linearGradient id="paint1_linear_279_69" x1="0" y1="175.103" x2="139.5" y2="175.103" gradientUnits="userSpaceOnUse">
<stop stop-color="#136DB9"/>
<stop offset="1" stop-color="#93C2EA"/>
</linearGradient>
<linearGradient id="paint2_linear_279_69" x1="138.854" y1="35.2787" x2="278.354" y2="35.2787" gradientUnits="userSpaceOnUse">
<stop stop-color="#136DB9"/>
<stop offset="1" stop-color="#93C2EA"/>
</linearGradient>
<linearGradient id="paint3_linear_279_69" x1="139.5" y1="104.544" x2="279" y2="104.544" gradientUnits="userSpaceOnUse">
<stop stop-color="#93C2EA"/>
<stop offset="1" stop-color="#136DB9"/>
</linearGradient>
<linearGradient id="paint4_linear_279_69" x1="35.1976" y1="139.824" x2="35.1976" y2="0" gradientUnits="userSpaceOnUse">
<stop stop-color="#136DB9"/>
<stop offset="1" stop-color="#93C2EA"/>
</linearGradient>
<linearGradient id="paint5_linear_279_69" x1="104.302" y1="139.824" x2="104.302" y2="0" gradientUnits="userSpaceOnUse">
<stop stop-color="#93C2EA"/>
<stop offset="1" stop-color="#136DB9"/>
</linearGradient>
<linearGradient id="paint6_linear_279_69" x1="174.698" y1="279" x2="174.698" y2="139.177" gradientUnits="userSpaceOnUse">
<stop stop-color="#136DB9"/>
<stop offset="1" stop-color="#93C2EA"/>
</linearGradient>
<linearGradient id="paint7_linear_279_69" x1="244.448" y1="279" x2="244.448" y2="139.177" gradientUnits="userSpaceOnUse">
<stop stop-color="#93C2EA"/>
<stop offset="1" stop-color="#136DB9"/>
</linearGradient>
</defs>
</svg>
